<svg width="1120" height="6640" viewBox="0 0 1120 6640" fill="none" xmlns="http://www.w3.org/2000/svg">
<rect x="0.5" y="0.5" width="1119" height="6639" rx="4.5" stroke="#9747FF" stroke-dasharray="10 5"/>
<g clip-path="url(#clip0_568_59)">
<g opacity="0.66" style="mix-blend-mode:soft-light">
<path d="M1100 20V1370H275.3L892.27 753.04C1041.05 604.25 1041.05 363.01 892.27 214.23C817.88 139.83 720.37 102.64 622.86 102.64C525.35 102.64 427.85 139.83 353.46 214.23L20 547.68V20H1100Z" fill="white"/>
</g>
</g>
<rect width="1080" height="1350" transform="translate(20 5270)" fill="url(#paint0_linear_568_59)"/>
<rect width="1080" height="1350" transform="translate(20 1770)" fill="url(#paint1_linear_568_59)"/>
<rect width="1080" height="1350" transform="translate(20 3520)" fill="url(#paint2_linear_568_59)"/>
<defs>
<linearGradient id="paint0_linear_568_59" x1="155.41" y1="1439.77" x2="1074.59" y2="-388.04" gradientUnits="userSpaceOnUse">
<stop offset="0.07" stop-color="#78BE20"/>
<stop offset="0.1" stop-color="#83C333"/>
<stop offset="0.24" stop-color="#B8DC89"/>
<stop offset="0.35" stop-color="#DEEFC9"/>
<stop offset="0.43" stop-color="#F5FAF0"/>
<stop offset="0.47" stop-color="white"/>
</linearGradient>
<linearGradient id="paint1_linear_568_59" x1="540" y1="1308.91" x2="540" y2="-737.01" gradientUnits="userSpaceOnUse">
<stop offset="0.14" stop-color="#78BE20"/>
<stop offset="0.5" stop-color="#78BE20" stop-opacity="0"/>
</linearGradient>
<linearGradient id="paint2_linear_568_59" x1="540" y1="1308.91" x2="540" y2="-737.01" gradientUnits="userSpaceOnUse">
<stop offset="0.14" stop-color="white"/>
<stop offset="0.17" stop-color="#F7F7F7" stop-opacity="0.96"/>
<stop offset="0.23" stop-color="#E4E4E4" stop-opacity="0.85"/>
<stop offset="0.31" stop-color="#C5C5C5" stop-opacity="0.67"/>
<stop offset="0.4" stop-color="#9A9A9A" stop-opacity="0.43"/>
<stop offset="0.5" stop-color="#646464" stop-opacity="0.12"/>
<stop offset="0.54" stop-color="#505050" stop-opacity="0"/>
</linearGradient>
<clipPath id="clip0_568_59">
<rect width="1080" height="1350" fill="white" transform="translate(20 20)"/>
</clipPath>
</defs>
</svg>
