<svg width="518" height="414" viewBox="0 0 518 414" fill="none" xmlns="http://www.w3.org/2000/svg">
<rect x="0.5" y="0.5" width="517" height="413" rx="4.5" stroke="#9747FF" stroke-dasharray="10 5"/>
<rect x="112" y="20" width="293" height="72" rx="36" fill="#E4002B"/>
<path d="M183.193 68.432C178.585 68.432 175.273 66.884 173.041 64.616L175.813 60.728C177.505 62.492 180.133 63.968 183.445 63.968C186.253 63.968 187.621 62.672 187.621 61.304C187.621 57.056 173.797 59.972 173.797 50.936C173.797 46.94 177.253 43.628 182.905 43.628C186.721 43.628 189.889 44.78 192.265 46.976L189.421 50.72C187.477 48.92 184.885 48.092 182.437 48.092C180.241 48.092 179.017 49.064 179.017 50.504C179.017 54.32 192.805 51.764 192.805 60.728C192.805 65.12 189.673 68.432 183.193 68.432ZM201.719 68H196.607V43.988H207.839C213.059 43.988 215.903 47.516 215.903 51.728C215.903 55.904 213.023 59.468 207.839 59.468H201.719V68ZM207.155 54.968C209.171 54.968 210.683 53.708 210.683 51.728C210.683 49.712 209.171 48.488 207.155 48.488H201.719V54.968H207.155ZM238.872 68H233.004L228.288 59.468H224.544V68H219.432V43.988H230.664C235.668 43.988 238.728 47.264 238.728 51.728C238.728 55.976 236.064 58.244 233.472 58.856L238.872 68ZM229.908 54.968C231.96 54.968 233.508 53.744 233.508 51.728C233.508 49.712 231.96 48.488 229.908 48.488H224.544V54.968H229.908ZM265.317 68H259.485L258.009 63.932H247.713L246.201 68H240.369L249.657 43.988H256.065L265.317 68ZM256.605 59.432L252.861 49.1L249.117 59.432H256.605ZM290.108 68H284.672L280.46 51.512L276.284 68H270.848L263.972 43.988H269.696L273.908 61.34L278.48 43.988H282.476L287.012 61.34L291.188 43.988H296.948L290.108 68ZM309.187 68H299.719V43.988H309.187C316.711 43.988 321.931 48.776 321.931 56.012C321.931 63.248 316.711 68 309.187 68ZM309.187 63.5C313.939 63.5 316.711 60.08 316.711 56.012C316.711 51.764 314.119 48.488 309.187 48.488H304.831V63.5H309.187ZM339.898 36.788L334.066 41.972H330.862L335.686 36.788H339.898ZM342.85 68H324.562V63.86L335.902 48.488H324.562V43.988H342.598V48.092L331.258 63.5H342.85V68Z" fill="white"/>
<rect x="112" y="170" width="293" height="72" rx="36" fill="#5DA20A"/>
<path d="M183.193 218.432C178.585 218.432 175.273 216.884 173.041 214.616L175.813 210.728C177.505 212.492 180.133 213.968 183.445 213.968C186.253 213.968 187.621 212.672 187.621 211.304C187.621 207.056 173.797 209.972 173.797 200.936C173.797 196.94 177.253 193.628 182.905 193.628C186.721 193.628 189.889 194.78 192.265 196.976L189.421 200.72C187.477 198.92 184.885 198.092 182.437 198.092C180.241 198.092 179.017 199.064 179.017 200.504C179.017 204.32 192.805 201.764 192.805 210.728C192.805 215.12 189.673 218.432 183.193 218.432ZM201.719 218H196.607V193.988H207.839C213.059 193.988 215.903 197.516 215.903 201.728C215.903 205.904 213.023 209.468 207.839 209.468H201.719V218ZM207.155 204.968C209.171 204.968 210.683 203.708 210.683 201.728C210.683 199.712 209.171 198.488 207.155 198.488H201.719V204.968H207.155ZM238.872 218H233.004L228.288 209.468H224.544V218H219.432V193.988H230.664C235.668 193.988 238.728 197.264 238.728 201.728C238.728 205.976 236.064 208.244 233.472 208.856L238.872 218ZM229.908 204.968C231.96 204.968 233.508 203.744 233.508 201.728C233.508 199.712 231.96 198.488 229.908 198.488H224.544V204.968H229.908ZM265.317 218H259.485L258.009 213.932H247.713L246.201 218H240.369L249.657 193.988H256.065L265.317 218ZM256.605 209.432L252.861 199.1L249.117 209.432H256.605ZM290.108 218H284.672L280.46 201.512L276.284 218H270.848L263.972 193.988H269.696L273.908 211.34L278.48 193.988H282.476L287.012 211.34L291.188 193.988H296.948L290.108 218ZM309.187 218H299.719V193.988H309.187C316.711 193.988 321.931 198.776 321.931 206.012C321.931 213.248 316.711 218 309.187 218ZM309.187 213.5C313.939 213.5 316.711 210.08 316.711 206.012C316.711 201.764 314.119 198.488 309.187 198.488H304.831V213.5H309.187ZM339.898 186.788L334.066 191.972H330.862L335.686 186.788H339.898ZM342.85 218H324.562V213.86L335.902 198.488H324.562V193.988H342.598V198.092L331.258 213.5H342.85V218Z" fill="white"/>
<rect x="112" y="320" width="293" height="72" rx="36" fill="white"/>
<path d="M183.193 368.432C178.585 368.432 175.273 366.884 173.041 364.616L175.813 360.728C177.505 362.492 180.133 363.968 183.445 363.968C186.253 363.968 187.621 362.672 187.621 361.304C187.621 357.056 173.797 359.972 173.797 350.936C173.797 346.94 177.253 343.628 182.905 343.628C186.721 343.628 189.889 344.78 192.265 346.976L189.421 350.72C187.477 348.92 184.885 348.092 182.437 348.092C180.241 348.092 179.017 349.064 179.017 350.504C179.017 354.32 192.805 351.764 192.805 360.728C192.805 365.12 189.673 368.432 183.193 368.432ZM201.719 368H196.607V343.988H207.839C213.059 343.988 215.903 347.516 215.903 351.728C215.903 355.904 213.023 359.468 207.839 359.468H201.719V368ZM207.155 354.968C209.171 354.968 210.683 353.708 210.683 351.728C210.683 349.712 209.171 348.488 207.155 348.488H201.719V354.968H207.155ZM238.872 368H233.004L228.288 359.468H224.544V368H219.432V343.988H230.664C235.668 343.988 238.728 347.264 238.728 351.728C238.728 355.976 236.064 358.244 233.472 358.856L238.872 368ZM229.908 354.968C231.96 354.968 233.508 353.744 233.508 351.728C233.508 349.712 231.96 348.488 229.908 348.488H224.544V354.968H229.908ZM265.317 368H259.485L258.009 363.932H247.713L246.201 368H240.369L249.657 343.988H256.065L265.317 368ZM256.605 359.432L252.861 349.1L249.117 359.432H256.605ZM290.108 368H284.672L280.46 351.512L276.284 368H270.848L263.972 343.988H269.696L273.908 361.34L278.48 343.988H282.476L287.012 361.34L291.188 343.988H296.948L290.108 368ZM309.187 368H299.719V343.988H309.187C316.711 343.988 321.931 348.776 321.931 356.012C321.931 363.248 316.711 368 309.187 368ZM309.187 363.5C313.939 363.5 316.711 360.08 316.711 356.012C316.711 351.764 314.119 348.488 309.187 348.488H304.831V363.5H309.187ZM339.898 336.788L334.066 341.972H330.862L335.686 336.788H339.898ZM342.85 368H324.562V363.86L335.902 348.488H324.562V343.988H342.598V348.092L331.258 363.5H342.85V368Z" fill="#5DA20A"/>
</svg>
