<svg width="410" height="672" viewBox="0 0 410 672" fill="none" xmlns="http://www.w3.org/2000/svg">
<rect x="0.5" y="0.5" width="409" height="671" rx="4.5" stroke="#9747FF" stroke-dasharray="10 5"/>
<path d="M20 20H333.5C364.704 20 390 45.2959 390 76.5C390 107.704 364.704 133 333.5 133H20V20Z" fill="#E4002B"/>
<path d="M104.034 103H63.8741V94.12C85.7141 77.96 92.1141 72.44 92.1141 65.88C92.1141 61.24 87.8741 58.92 83.4741 58.92C77.3941 58.92 72.7541 61.32 69.1541 65.08L62.6741 57.56C67.8741 51.56 75.7941 48.84 83.2341 48.84C94.5941 48.84 103.634 55.24 103.634 65.88C103.634 75 96.1141 82.92 82.2741 93H104.034V103ZM146.883 79.16H132.563V95.4H125.603V79.16H111.203V72.84H125.603V57.24H132.563V72.84H146.883V79.16ZM177.595 103H166.235V64.28L157.355 73.32L150.875 66.52L167.675 49.64H177.595V103Z" fill="white"/>
<path d="M234.488 90H219.168V86.84L228.728 74.36H219.168V70.68H234.328V73.76L224.688 86.36H234.488V90ZM256.872 90H252.672V87.36C251.192 89.28 248.952 90.48 246.472 90.48C241.512 90.48 237.872 86.72 237.872 80.36C237.872 74.12 241.472 70.2 246.472 70.2C248.872 70.2 251.112 71.32 252.672 73.36V63.32H256.872V90ZM247.672 86.76C249.672 86.76 251.712 85.64 252.672 84.2V76.52C251.712 75.08 249.672 73.92 247.672 73.92C244.352 73.92 242.232 76.6 242.232 80.36C242.232 84.08 244.352 86.76 247.672 86.76ZM278.314 90H274.114V87.92C272.674 89.56 270.434 90.48 267.874 90.48C264.714 90.48 261.154 88.36 261.154 84.08C261.154 79.64 264.714 77.8 267.874 77.8C270.474 77.8 272.714 78.64 274.114 80.28V77.4C274.114 75.16 272.274 73.8 269.594 73.8C267.434 73.8 265.554 74.6 263.874 76.24L262.154 73.32C264.394 71.2 267.194 70.2 270.274 70.2C274.554 70.2 278.314 72 278.314 77.2V90ZM269.514 87.6C271.354 87.6 273.154 86.92 274.114 85.6V82.68C273.154 81.36 271.354 80.68 269.514 80.68C267.154 80.68 265.394 82.04 265.394 84.16C265.394 86.24 267.154 87.6 269.514 87.6ZM287.959 90H283.759V70.68H287.959V73.52C289.399 71.68 291.719 70.24 294.239 70.24V74.4C293.879 74.32 293.439 74.28 292.919 74.28C291.159 74.28 288.799 75.48 287.959 76.84V90ZM325.506 90H321.306V77.4C321.306 75.32 320.386 73.92 318.146 73.92C316.266 73.92 314.506 75.24 313.666 76.48V90H309.466V77.4C309.466 75.32 308.546 73.92 306.266 73.92C304.426 73.92 302.706 75.24 301.826 76.52V90H297.626V70.68H301.826V73.32C302.626 72.12 305.186 70.2 308.106 70.2C310.986 70.2 312.746 71.64 313.386 73.76C314.506 72 317.066 70.2 319.946 70.2C323.506 70.2 325.506 72.12 325.506 76.04V90ZM346.947 90H342.747V87.92C341.307 89.56 339.067 90.48 336.507 90.48C333.347 90.48 329.787 88.36 329.787 84.08C329.787 79.64 333.347 77.8 336.507 77.8C339.107 77.8 341.347 78.64 342.747 80.28V77.4C342.747 75.16 340.907 73.8 338.227 73.8C336.067 73.8 334.187 74.6 332.507 76.24L330.787 73.32C333.027 71.2 335.827 70.2 338.907 70.2C343.187 70.2 346.947 72 346.947 77.2V90ZM338.147 87.6C339.987 87.6 341.787 86.92 342.747 85.6V82.68C341.787 81.36 339.987 80.68 338.147 80.68C335.787 80.68 334.027 82.04 334.027 84.16C334.027 86.24 335.787 87.6 338.147 87.6Z" fill="white"/>
<path d="M20 273.5C20 242.296 45.2959 217 76.5 217H390V330H76.5C45.2959 330 20 304.704 20 273.5Z" fill="#E4002B"/>
<path d="M104.034 300H63.8741V291.12C85.7141 274.96 92.1141 269.44 92.1141 262.88C92.1141 258.24 87.8741 255.92 83.4741 255.92C77.3941 255.92 72.7541 258.32 69.1541 262.08L62.6741 254.56C67.8741 248.56 75.7941 245.84 83.2341 245.84C94.5941 245.84 103.634 252.24 103.634 262.88C103.634 272 96.1141 279.92 82.2741 290H104.034V300ZM146.883 276.16H132.563V292.4H125.603V276.16H111.203V269.84H125.603V254.24H132.563V269.84H146.883V276.16ZM177.595 300H166.235V261.28L157.355 270.32L150.875 263.52L167.675 246.64H177.595V300Z" fill="white"/>
<path d="M234.488 287H219.168V283.84L228.728 271.36H219.168V267.68H234.328V270.76L224.688 283.36H234.488V287ZM256.872 287H252.672V284.36C251.192 286.28 248.952 287.48 246.472 287.48C241.512 287.48 237.872 283.72 237.872 277.36C237.872 271.12 241.472 267.2 246.472 267.2C248.872 267.2 251.112 268.32 252.672 270.36V260.32H256.872V287ZM247.672 283.76C249.672 283.76 251.712 282.64 252.672 281.2V273.52C251.712 272.08 249.672 270.92 247.672 270.92C244.352 270.92 242.232 273.6 242.232 277.36C242.232 281.08 244.352 283.76 247.672 283.76ZM278.314 287H274.114V284.92C272.674 286.56 270.434 287.48 267.874 287.48C264.714 287.48 261.154 285.36 261.154 281.08C261.154 276.64 264.714 274.8 267.874 274.8C270.474 274.8 272.714 275.64 274.114 277.28V274.4C274.114 272.16 272.274 270.8 269.594 270.8C267.434 270.8 265.554 271.6 263.874 273.24L262.154 270.32C264.394 268.2 267.194 267.2 270.274 267.2C274.554 267.2 278.314 269 278.314 274.2V287ZM269.514 284.6C271.354 284.6 273.154 283.92 274.114 282.6V279.68C273.154 278.36 271.354 277.68 269.514 277.68C267.154 277.68 265.394 279.04 265.394 281.16C265.394 283.24 267.154 284.6 269.514 284.6ZM287.959 287H283.759V267.68H287.959V270.52C289.399 268.68 291.719 267.24 294.239 267.24V271.4C293.879 271.32 293.439 271.28 292.919 271.28C291.159 271.28 288.799 272.48 287.959 273.84V287ZM325.506 287H321.306V274.4C321.306 272.32 320.386 270.92 318.146 270.92C316.266 270.92 314.506 272.24 313.666 273.48V287H309.466V274.4C309.466 272.32 308.546 270.92 306.266 270.92C304.426 270.92 302.706 272.24 301.826 273.52V287H297.626V267.68H301.826V270.32C302.626 269.12 305.186 267.2 308.106 267.2C310.986 267.2 312.746 268.64 313.386 270.76C314.506 269 317.066 267.2 319.946 267.2C323.506 267.2 325.506 269.12 325.506 273.04V287ZM346.947 287H342.747V284.92C341.307 286.56 339.067 287.48 336.507 287.48C333.347 287.48 329.787 285.36 329.787 281.08C329.787 276.64 333.347 274.8 336.507 274.8C339.107 274.8 341.347 275.64 342.747 277.28V274.4C342.747 272.16 340.907 270.8 338.227 270.8C336.067 270.8 334.187 271.6 332.507 273.24L330.787 270.32C333.027 268.2 335.827 267.2 338.907 267.2C343.187 267.2 346.947 269 346.947 274.2V287ZM338.147 284.6C339.987 284.6 341.787 283.92 342.747 282.6V279.68C341.787 278.36 339.987 277.68 338.147 277.68C335.787 277.68 334.027 279.04 334.027 281.16C334.027 283.24 335.787 284.6 338.147 284.6Z" fill="white"/>
</svg>
