<svg width="126" height="161" viewBox="0 0 126 161" fill="none" xmlns="http://www.w3.org/2000/svg">
<rect x="0.5" y="0.5" width="125" height="160" rx="4.5" stroke="#9747FF" stroke-dasharray="10 5"/>
<rect x="23" y="20" width="80" height="23" rx="11.5" fill="#E4002B"/>
<path d="M42.0814 35.12C40.8014 35.12 39.8814 34.69 39.2614 34.06L40.0314 32.98C40.5014 33.47 41.2314 33.88 42.1514 33.88C42.9314 33.88 43.3114 33.52 43.3114 33.14C43.3114 31.96 39.4714 32.77 39.4714 30.26C39.4714 29.15 40.4314 28.23 42.0014 28.23C43.0614 28.23 43.9414 28.55 44.6014 29.16L43.8114 30.2C43.2714 29.7 42.5514 29.47 41.8714 29.47C41.2614 29.47 40.9214 29.74 40.9214 30.14C40.9214 31.2 44.7514 30.49 44.7514 32.98C44.7514 34.2 43.8814 35.12 42.0814 35.12ZM47.2275 35H45.8075V28.33H48.9275C50.3775 28.33 51.1675 29.31 51.1675 30.48C51.1675 31.64 50.3675 32.63 48.9275 32.63H47.2275V35ZM48.7375 31.38C49.2975 31.38 49.7175 31.03 49.7175 30.48C49.7175 29.92 49.2975 29.58 48.7375 29.58H47.2275V31.38H48.7375ZM57.5477 35H55.9177L54.6077 32.63H53.5677V35H52.1477V28.33H55.2677C56.6577 28.33 57.5077 29.24 57.5077 30.48C57.5077 31.66 56.7677 32.29 56.0477 32.46L57.5477 35ZM55.0577 31.38C55.6277 31.38 56.0577 31.04 56.0577 30.48C56.0577 29.92 55.6277 29.58 55.0577 29.58H53.5677V31.38H55.0577ZM64.8935 35H63.2735L62.8635 33.87H60.0035L59.5835 35H57.9635L60.5435 28.33H62.3235L64.8935 35ZM62.4735 32.62L61.4335 29.75L60.3935 32.62H62.4735ZM71.78 35H70.27L69.1 30.42L67.94 35H66.43L64.52 28.33H66.11L67.28 33.15L68.55 28.33H69.66L70.92 33.15L72.08 28.33H73.68L71.78 35ZM77.0797 35H74.4496V28.33H77.0797C79.1697 28.33 80.6197 29.66 80.6197 31.67C80.6197 33.68 79.1697 35 77.0797 35ZM77.0797 33.75C78.3997 33.75 79.1697 32.8 79.1697 31.67C79.1697 30.49 78.4497 29.58 77.0797 29.58H75.8697V33.75H77.0797ZM85.6107 26.33L83.9907 27.77H83.1007L84.4407 26.33H85.6107ZM86.4307 35H81.3507V33.85L84.5007 29.58H81.3507V28.33H86.3607V29.47L83.2107 33.75H86.4307V35Z" fill="white"/>
<rect x="23" y="69" width="80" height="23" rx="11.5" fill="#5DA20A"/>
<path d="M42.0814 84.12C40.8014 84.12 39.8814 83.69 39.2614 83.06L40.0314 81.98C40.5014 82.47 41.2314 82.88 42.1514 82.88C42.9314 82.88 43.3114 82.52 43.3114 82.14C43.3114 80.96 39.4714 81.77 39.4714 79.26C39.4714 78.15 40.4314 77.23 42.0014 77.23C43.0614 77.23 43.9414 77.55 44.6014 78.16L43.8114 79.2C43.2714 78.7 42.5514 78.47 41.8714 78.47C41.2614 78.47 40.9214 78.74 40.9214 79.14C40.9214 80.2 44.7514 79.49 44.7514 81.98C44.7514 83.2 43.8814 84.12 42.0814 84.12ZM47.2275 84H45.8075V77.33H48.9275C50.3775 77.33 51.1675 78.31 51.1675 79.48C51.1675 80.64 50.3675 81.63 48.9275 81.63H47.2275V84ZM48.7375 80.38C49.2975 80.38 49.7175 80.03 49.7175 79.48C49.7175 78.92 49.2975 78.58 48.7375 78.58H47.2275V80.38H48.7375ZM57.5477 84H55.9177L54.6077 81.63H53.5677V84H52.1477V77.33H55.2677C56.6577 77.33 57.5077 78.24 57.5077 79.48C57.5077 80.66 56.7677 81.29 56.0477 81.46L57.5477 84ZM55.0577 80.38C55.6277 80.38 56.0577 80.04 56.0577 79.48C56.0577 78.92 55.6277 78.58 55.0577 78.58H53.5677V80.38H55.0577ZM64.8935 84H63.2735L62.8635 82.87H60.0035L59.5835 84H57.9635L60.5435 77.33H62.3235L64.8935 84ZM62.4735 81.62L61.4335 78.75L60.3935 81.62H62.4735ZM71.78 84H70.27L69.1 79.42L67.94 84H66.43L64.52 77.33H66.11L67.28 82.15L68.55 77.33H69.66L70.92 82.15L72.08 77.33H73.68L71.78 84ZM77.0797 84H74.4496V77.33H77.0797C79.1697 77.33 80.6197 78.66 80.6197 80.67C80.6197 82.68 79.1697 84 77.0797 84ZM77.0797 82.75C78.3997 82.75 79.1697 81.8 79.1697 80.67C79.1697 79.49 78.4497 78.58 77.0797 78.58H75.8697V82.75H77.0797ZM85.6107 75.33L83.9907 76.77H83.1007L84.4407 75.33H85.6107ZM86.4307 84H81.3507V82.85L84.5007 78.58H81.3507V77.33H86.3607V78.47L83.2107 82.75H86.4307V84Z" fill="white"/>
<rect x="23" y="118" width="80" height="23" rx="11.5" fill="white"/>
<path d="M42.0814 133.12C40.8014 133.12 39.8814 132.69 39.2614 132.06L40.0314 130.98C40.5014 131.47 41.2314 131.88 42.1514 131.88C42.9314 131.88 43.3114 131.52 43.3114 131.14C43.3114 129.96 39.4714 130.77 39.4714 128.26C39.4714 127.15 40.4314 126.23 42.0014 126.23C43.0614 126.23 43.9414 126.55 44.6014 127.16L43.8114 128.2C43.2714 127.7 42.5514 127.47 41.8714 127.47C41.2614 127.47 40.9214 127.74 40.9214 128.14C40.9214 129.2 44.7514 128.49 44.7514 130.98C44.7514 132.2 43.8814 133.12 42.0814 133.12ZM47.2275 133H45.8075V126.33H48.9275C50.3775 126.33 51.1675 127.31 51.1675 128.48C51.1675 129.64 50.3675 130.63 48.9275 130.63H47.2275V133ZM48.7375 129.38C49.2975 129.38 49.7175 129.03 49.7175 128.48C49.7175 127.92 49.2975 127.58 48.7375 127.58H47.2275V129.38H48.7375ZM57.5477 133H55.9177L54.6077 130.63H53.5677V133H52.1477V126.33H55.2677C56.6577 126.33 57.5077 127.24 57.5077 128.48C57.5077 129.66 56.7677 130.29 56.0477 130.46L57.5477 133ZM55.0577 129.38C55.6277 129.38 56.0577 129.04 56.0577 128.48C56.0577 127.92 55.6277 127.58 55.0577 127.58H53.5677V129.38H55.0577ZM64.8935 133H63.2735L62.8635 131.87H60.0035L59.5835 133H57.9635L60.5435 126.33H62.3235L64.8935 133ZM62.4735 130.62L61.4335 127.75L60.3935 130.62H62.4735ZM71.78 133H70.27L69.1 128.42L67.94 133H66.43L64.52 126.33H66.11L67.28 131.15L68.55 126.33H69.66L70.92 131.15L72.08 126.33H73.68L71.78 133ZM77.0797 133H74.4496V126.33H77.0797C79.1697 126.33 80.6197 127.66 80.6197 129.67C80.6197 131.68 79.1697 133 77.0797 133ZM77.0797 131.75C78.3997 131.75 79.1697 130.8 79.1697 129.67C79.1697 128.49 78.4497 127.58 77.0797 127.58H75.8697V131.75H77.0797ZM85.6107 124.33L83.9907 125.77H83.1007L84.4407 124.33H85.6107ZM86.4307 133H81.3507V131.85L84.5007 127.58H81.3507V126.33H86.3607V127.47L83.2107 131.75H86.4307V133Z" fill="#5DA20A"/>
</svg>
