<svg width="620" height="700" viewBox="0 0 620 700" fill="none" xmlns="http://www.w3.org/2000/svg">
<rect x="0.5" y="0.5" width="619" height="699" rx="4.5" stroke="#9747FF" stroke-dasharray="10 5"/>
<!-- Pricetags — simple / double / Omnibus. Red brand tag, white price. -->

<!-- simple -->
<rect x="40" y="40" width="300" height="120" rx="60" fill="#E4002B"/>
<text x="190" y="122" text-anchor="middle" font-family="'Proxima Nova','Helvetica Neue',Arial,sans-serif" font-weight="800" font-size="62" fill="#FFFFFF">299,-</text>
<text x="380" y="112" font-family="'Proxima Nova','Helvetica Neue',Arial,sans-serif" font-weight="600" font-size="24" fill="#9747FF">simple</text>

<!-- double -->
<path d="M100 230 H300 C350 230 380 260 380 305 C380 350 350 380 300 380 H100 Z" fill="#E4002B"/>
<text x="130" y="318" font-family="'Proxima Nova','Helvetica Neue',Arial,sans-serif" font-weight="800" font-size="58" fill="#FFFFFF">299,-</text>
<text x="132" y="362" font-family="'Proxima Nova','Helvetica Neue',Arial,sans-serif" font-weight="600" font-size="30" fill="#FFFFFF" opacity="0.92">599,-</text>
<line x1="128" y1="352" x2="240" y2="352" stroke="#FFFFFF" stroke-width="3" opacity="0.92"/>
<text x="410" y="312" font-family="'Proxima Nova','Helvetica Neue',Arial,sans-serif" font-weight="600" font-size="24" fill="#9747FF">double</text>

<!-- Omnibus -->
<path d="M100 460 H360 C410 460 440 490 440 535 C440 580 410 610 360 610 H100 Z" fill="#E4002B"/>
<text x="130" y="548" font-family="'Proxima Nova','Helvetica Neue',Arial,sans-serif" font-weight="800" font-size="58" fill="#FFFFFF">299,-</text>
<text x="132" y="592" font-family="'Proxima Nova','Helvetica Neue',Arial,sans-serif" font-weight="600" font-size="28" fill="#FFFFFF" opacity="0.92">Běžná 599,-</text>
<line x1="128" y1="583" x2="300" y2="583" stroke="#FFFFFF" stroke-width="3" opacity="0.92"/>
<text x="470" y="542" font-family="'Proxima Nova','Helvetica Neue',Arial,sans-serif" font-weight="600" font-size="24" fill="#9747FF">Omnibus</text>
</svg>
